<svg xmlns="http://www.w3.org/2000/svg" width="64.267" height="249.151" viewBox="0 0 64.267 249.151">
  <g id="Group_38" data-name="Group 38" transform="matrix(1, -0.017, 0.017, 1, -1.636, 0.746)" opacity="0.5">
    <g id="Group_24" data-name="Group 24" transform="translate(4.928 241.613)">
      <path id="Path_38" data-name="Path 38" d="M6.834,0H0V6.916H22.841Z" transform="translate(29.569 0)" fill="#54c7f5"/>
      <path id="Path_39" data-name="Path 39" d="M16.565,0H23.4V6.916H0Z" transform="translate(0 0)" fill="#54c7f5"/>
    </g>
    <path id="Path_40" data-name="Path 40" d="M17.381,14.412c-3.1,3.233-13.248,3.133-17.381,0C2.434,10.455,6.15,6.095,3.713,2.138q5.074-4.276,10.138,0C11.419,6.095,14.951,10.455,17.381,14.412Z" transform="translate(22.635 38.993)" fill="#df7977"/>
    <g id="Group_25" data-name="Group 25" transform="translate(13.885 2.794)">
      <ellipse id="Ellipse_3" data-name="Ellipse 3" cx="17.553" cy="20.288" rx="17.553" ry="20.288" transform="translate(0 0)" fill="#f49a99"/>
    </g>
    <g id="Group_26" data-name="Group 26" transform="translate(26.307 33.226)">
      <path id="Path_41" data-name="Path 41" d="M0,0A5.137,5.137,0,0,0,5.131,4.838,5.14,5.14,0,0,0,10.261,0Z" transform="translate(0 0)" fill="#fff"/>
    </g>
    <g id="Group_27" data-name="Group 27" transform="translate(10.781 23.082)">
      <path id="Path_42" data-name="Path 42" d="M6.206,3.107A3.1,3.1,0,1,1,3.1,0,3.1,3.1,0,0,1,6.206,3.107Z" transform="translate(35.105 0)" fill="#f49a99"/>
      <path id="Path_43" data-name="Path 43" d="M6.209,3.107A3.1,3.1,0,1,1,3.1,0,3.1,3.1,0,0,1,6.209,3.107Z" transform="translate(0 0)" fill="#f49a99"/>
    </g>
    <g id="Group_31" data-name="Group 31" transform="translate(20.098 23.082)">
      <path id="Path_44" data-name="Path 44" d="M1.662,0,0,7.532H1.757" transform="translate(10.461 0)" fill="none" stroke="#503267" stroke-linecap="round" stroke-linejoin="round" stroke-width="0.8"/>
      <g id="Group_30" data-name="Group 30" transform="translate(0 2.14)">
        <g id="Group_28" data-name="Group 28" transform="translate(18.017 0)">
          <path id="Path_45" data-name="Path 45" d="M4.664.966A3.3,3.3,0,0,0,0,.966" fill="none" stroke="#503267" stroke-linecap="round" stroke-linejoin="round" stroke-width="0.8"/>
          <path id="Path_46" data-name="Path 46" d="M0,0" transform="translate(3.81 0.346)" fill="none" stroke="#503267" stroke-linecap="round" stroke-linejoin="round" stroke-width="0.8"/>
        </g>
        <g id="Group_29" data-name="Group 29" transform="translate(0 0)">
          <path id="Path_47" data-name="Path 47" d="M4.665.966A3.3,3.3,0,0,0,0,.966" fill="none" stroke="#503267" stroke-linecap="round" stroke-linejoin="round" stroke-width="0.8"/>
        </g>
      </g>
    </g>
    <g id="Group_34" data-name="Group 34" transform="translate(51.262 55.384)">
      <path id="Path_48" data-name="Path 48" d="M11.5,44.5l.056-42.472L0,0,5.408,44.932Z" fill="#f49a99"/>
      <path id="Path_49" data-name="Path 49" d="M11.526,25.837l.03-23.811L0,0,3.109,25.837Z" fill="#54c7f5"/>
      <g id="Group_33" data-name="Group 33" transform="translate(3.694 44.073)">
        <path id="Path_50" data-name="Path 50" d="M6.107,0,5.757,30.6l-4.1.108L0,.186Z" transform="translate(1.755 0)" fill="#f49a99"/>
        <g id="Group_32" data-name="Group 32" transform="translate(0 30.341)">
          <path id="Path_51" data-name="Path 51" d="M0,.143.232,9.124,5.7,8.981,5.467,0Z" transform="translate(2.829 0)" fill="#f49a99"/>
          <path id="Path_52" data-name="Path 52" d="M2.82,0,0,4.057l.542.79L4.12,2.711,4.067.664Z" transform="translate(0 0.143)" fill="#f49a99"/>
        </g>
      </g>
    </g>
    <g id="Group_37" data-name="Group 37" transform="translate(0 55.384)">
      <path id="Path_53" data-name="Path 53" d="M.054,44.5,0,2.026,11.557,0,6.148,44.932Z" transform="translate(0.669 0)" fill="#f49a99"/>
      <path id="Path_54" data-name="Path 54" d="M.033,25.837,0,2.026,11.557,0,8.448,25.837Z" transform="translate(0.669 0)" fill="#54c7f5"/>
      <g id="Group_36" data-name="Group 36" transform="translate(0 44.073)">
        <path id="Path_55" data-name="Path 55" d="M0,0,.349,30.6l4.1.108L6.107.186Z" transform="translate(0.669 0)" fill="#f49a99"/>
        <g id="Group_35" data-name="Group 35" transform="translate(0 30.343)">
          <rect id="Rectangle_4" data-name="Rectangle 4" width="8.984" height="5.474" transform="translate(0 8.981) rotate(-88.532)" fill="#f49a99"/>
          <path id="Path_56" data-name="Path 56" d="M1.3,0,4.12,4.057l-.542.79L0,2.711.052.664Z" transform="translate(4.412 0.142)" fill="#f49a99"/>
        </g>
      </g>
    </g>
    <path id="Path_57" data-name="Path 57" d="M32.38,3.913C29.052.373,25.7,0,22.353,0,10.914,0,4.688,14.43,0,14.582c5.423,6.348,11.018,7.172,17.342,7.172,6.762,0,10.639-3.284,13.513-6.73Z" transform="translate(10.358 0)" fill="#ffb766"/>
    <path id="Path_58" data-name="Path 58" d="M1.039,3.516C1.993,1.477,2.9-.259,5.668.032,10.159.5,11.424,6.6,11.424,9.538c0,5.727-1,8.877-2.818,15.45C3.664,20.051.412,16.485,0,9.69Z" transform="translate(39.831 3.165)" fill="#ffb766"/>
    <path id="Path_59" data-name="Path 59" d="M3,.929S1.652,7.749,1.208,10.5c0,0-2.228-4.065-.631-10.5Z" transform="translate(13.615 17.654)" fill="#ffb766"/>
    <path id="Path_60" data-name="Path 60" d="M0,0V10.513H0L10.738,117.684h8.921L20.783,10.513h2.111l2.252,107.172h8.022L43.681,10.513h0V0Z" transform="translate(8.98 123.928)" fill="#7cc295"/>
    <path id="Path_61" data-name="Path 61" d="M33.9,0s-2.627,2.3-8.688,2.3A17.457,17.457,0,0,1,16.52,0L0,3.1,2.953,74.8h43.62L50.928,2.951Z" transform="translate(6.114 53.406)" fill="#54c7f5"/>
  </g>
</svg>
